<mxfile host="app.diagrams.net" modified="2023-07-21T08:43:33.703Z" agent="Mozilla/5.0 (Macintosh; Intel Mac OS X 10_15_7) AppleWebKit/537.36 (KHTML, like Gecko) Chrome/114.0.0.0 Safari/537.36" etag="ZV-QgUXxt5tKzECp4paM" version="21.6.5" type="device">
  <diagram name="第 1 页" id="yB17NILQyW5c6pmkXZKW">
    <mxGraphModel dx="1562" dy="779" grid="1" gridSize="10" guides="1" tooltips="1" connect="1" arrows="1" fold="1" page="1" pageScale="1" pageWidth="827" pageHeight="1169" math="0" shadow="0">
      <root>
        <mxCell id="0" />
        <mxCell id="1" parent="0" />
        <mxCell id="czrCcJNF0WDWS_OJ83QU-1" value="Actor" style="shape=umlActor;verticalLabelPosition=bottom;verticalAlign=top;html=1;outlineConnect=0;" vertex="1" parent="1">
          <mxGeometry x="240" y="140" width="30" height="60" as="geometry" />
        </mxCell>
        <mxCell id="czrCcJNF0WDWS_OJ83QU-5" value="" style="html=1;verticalLabelPosition=bottom;labelBackgroundColor=#ffffff;verticalAlign=top;shadow=0;dashed=0;strokeWidth=1;shape=mxgraph.ios7.misc.iphone;strokeColor=#c0c0c0;" vertex="1" parent="1">
          <mxGeometry x="381" y="110" width="66" height="120" as="geometry" />
        </mxCell>
        <mxCell id="czrCcJNF0WDWS_OJ83QU-7" value="&lt;font style=&quot;font-size: 16px;&quot;&gt;selfweb3 dapp&lt;/font&gt;" style="rounded=0;whiteSpace=wrap;html=1;" vertex="1" parent="1">
          <mxGeometry x="354" y="310" width="120" height="60" as="geometry" />
        </mxCell>
        <mxCell id="czrCcJNF0WDWS_OJ83QU-8" value="" style="endArrow=classic;startArrow=classic;html=1;rounded=0;entryX=0;entryY=0.491;entryDx=0;entryDy=0;entryPerimeter=0;" edge="1" parent="1" source="czrCcJNF0WDWS_OJ83QU-1" target="czrCcJNF0WDWS_OJ83QU-5">
          <mxGeometry width="50" height="50" relative="1" as="geometry">
            <mxPoint x="334" y="240" as="sourcePoint" />
            <mxPoint x="384" y="190" as="targetPoint" />
          </mxGeometry>
        </mxCell>
        <mxCell id="czrCcJNF0WDWS_OJ83QU-9" value="" style="endArrow=classic;html=1;rounded=0;" edge="1" parent="1">
          <mxGeometry width="50" height="50" relative="1" as="geometry">
            <mxPoint x="410" y="300" as="sourcePoint" />
            <mxPoint x="410" y="240" as="targetPoint" />
          </mxGeometry>
        </mxCell>
        <mxCell id="czrCcJNF0WDWS_OJ83QU-10" value="" style="endArrow=classic;html=1;rounded=0;" edge="1" parent="1">
          <mxGeometry width="50" height="50" relative="1" as="geometry">
            <mxPoint x="430" y="240" as="sourcePoint" />
            <mxPoint x="430" y="300" as="targetPoint" />
          </mxGeometry>
        </mxCell>
        <mxCell id="czrCcJNF0WDWS_OJ83QU-11" value="&lt;font style=&quot;font-size: 17px;&quot;&gt;selfweb3 contract&lt;/font&gt;" style="sketch=0;pointerEvents=1;shadow=0;dashed=0;html=1;strokeColor=none;fillColor=#505050;labelPosition=center;verticalLabelPosition=bottom;verticalAlign=top;outlineConnect=0;align=center;shape=mxgraph.office.security.secure_messaging;" vertex="1" parent="1">
          <mxGeometry x="352" y="500" width="123.5" height="81" as="geometry" />
        </mxCell>
        <mxCell id="czrCcJNF0WDWS_OJ83QU-15" value="&lt;font style=&quot;font-size: 14px;&quot;&gt;request: dynamic authorization&lt;/font&gt;" style="text;html=1;strokeColor=none;fillColor=none;align=center;verticalAlign=middle;whiteSpace=wrap;rounded=0;" vertex="1" parent="1">
          <mxGeometry x="200" y="250" width="200" height="30" as="geometry" />
        </mxCell>
        <mxCell id="czrCcJNF0WDWS_OJ83QU-17" value="&lt;font style=&quot;font-size: 14px;&quot;&gt;webAuthn or TOTP authorization&lt;/font&gt;" style="text;html=1;align=center;verticalAlign=middle;resizable=0;points=[];autosize=1;strokeColor=none;fillColor=none;" vertex="1" parent="1">
          <mxGeometry x="430" y="250" width="230" height="30" as="geometry" />
        </mxCell>
        <mxCell id="czrCcJNF0WDWS_OJ83QU-18" value="" style="endArrow=classic;html=1;rounded=0;" edge="1" parent="1">
          <mxGeometry width="50" height="50" relative="1" as="geometry">
            <mxPoint x="413" y="380" as="sourcePoint" />
            <mxPoint x="413" y="490" as="targetPoint" />
          </mxGeometry>
        </mxCell>
        <mxCell id="czrCcJNF0WDWS_OJ83QU-19" value="" style="endArrow=classic;html=1;rounded=0;" edge="1" parent="1">
          <mxGeometry width="50" height="50" relative="1" as="geometry">
            <mxPoint x="430" y="490" as="sourcePoint" />
            <mxPoint x="430" y="380" as="targetPoint" />
          </mxGeometry>
        </mxCell>
        <mxCell id="czrCcJNF0WDWS_OJ83QU-20" value="&lt;font style=&quot;font-size: 14px;&quot;&gt;request + zk proof&lt;/font&gt;" style="text;html=1;align=center;verticalAlign=middle;resizable=0;points=[];autosize=1;strokeColor=none;fillColor=none;" vertex="1" parent="1">
          <mxGeometry x="245" y="420" width="140" height="30" as="geometry" />
        </mxCell>
        <mxCell id="czrCcJNF0WDWS_OJ83QU-21" value="&lt;font style=&quot;font-size: 14px;&quot;&gt;response web3 data or error&lt;/font&gt;" style="text;html=1;align=center;verticalAlign=middle;resizable=0;points=[];autosize=1;strokeColor=none;fillColor=none;" vertex="1" parent="1">
          <mxGeometry x="430" y="420" width="200" height="30" as="geometry" />
        </mxCell>
        <mxCell id="czrCcJNF0WDWS_OJ83QU-22" value="&lt;font style=&quot;font-size: 14px;&quot;&gt;Response:&amp;nbsp;report error&lt;/font&gt;" style="rounded=0;whiteSpace=wrap;html=1;" vertex="1" parent="1">
          <mxGeometry x="200" y="670" width="120" height="60" as="geometry" />
        </mxCell>
        <mxCell id="czrCcJNF0WDWS_OJ83QU-23" value="&lt;font style=&quot;font-size: 14px;&quot;&gt;Execution: On-chain operation&lt;/font&gt;" style="rounded=0;whiteSpace=wrap;html=1;" vertex="1" parent="1">
          <mxGeometry x="510" y="670" width="120" height="60" as="geometry" />
        </mxCell>
        <mxCell id="czrCcJNF0WDWS_OJ83QU-24" value="" style="endArrow=classic;html=1;rounded=0;" edge="1" parent="1">
          <mxGeometry width="50" height="50" relative="1" as="geometry">
            <mxPoint x="340" y="540" as="sourcePoint" />
            <mxPoint x="260" y="660" as="targetPoint" />
            <Array as="points">
              <mxPoint x="260" y="540" />
            </Array>
          </mxGeometry>
        </mxCell>
        <mxCell id="czrCcJNF0WDWS_OJ83QU-26" value="" style="endArrow=classic;html=1;rounded=0;" edge="1" parent="1">
          <mxGeometry width="50" height="50" relative="1" as="geometry">
            <mxPoint x="480" y="540" as="sourcePoint" />
            <mxPoint x="570" y="660" as="targetPoint" />
            <Array as="points">
              <mxPoint x="570" y="540" />
            </Array>
          </mxGeometry>
        </mxCell>
        <mxCell id="czrCcJNF0WDWS_OJ83QU-27" value="&lt;font style=&quot;font-size: 14px;&quot;&gt;verify successed&lt;/font&gt;" style="text;html=1;align=center;verticalAlign=middle;resizable=0;points=[];autosize=1;strokeColor=none;fillColor=none;" vertex="1" parent="1">
          <mxGeometry x="570" y="585" width="130" height="30" as="geometry" />
        </mxCell>
        <mxCell id="czrCcJNF0WDWS_OJ83QU-28" value="&lt;font style=&quot;font-size: 14px;&quot;&gt;verify failed&lt;/font&gt;" style="text;html=1;align=center;verticalAlign=middle;resizable=0;points=[];autosize=1;strokeColor=none;fillColor=none;" vertex="1" parent="1">
          <mxGeometry x="165" y="585" width="90" height="30" as="geometry" />
        </mxCell>
      </root>
    </mxGraphModel>
  </diagram>
</mxfile>
